<svg width="171" height="140" viewBox="0 0 171 140" fill="none" xmlns="http://www.w3.org/2000/svg">
<g clip-path="url(#clip0_990_4)">
<path d="M133.706 9.64251V81.3047L88.4274 11.1428C87.4581 9.64251 85.2698 9.64251 84.3005 11.1428L39.0222 81.3047V9.64251C39.0222 5.17098 42.6351 1.56727 47.0851 1.56727H125.643C130.093 1.55257 133.706 5.17098 133.706 9.64251Z" fill="white"/>
<path d="M128.257 99.8087L122.412 96.3962L103.628 85.3938L98.3265 82.305L87.6055 76.0242C86.8418 75.5682 85.8871 75.5682 85.1234 76.0242L74.4024 82.305L69.1005 85.3938L50.3166 96.3962L44.4714 99.8087C42.2391 101.118 39.7717 98.529 41.167 96.352L42.2097 94.7341L84.3157 29.4997C85.285 27.9993 87.4733 27.9993 88.4426 29.4997L130.549 94.7341L131.591 96.352C132.957 98.529 130.49 101.118 128.257 99.8087Z" fill="white"/>
</g>
<path d="M23.3689 116.338H14.7567V138.682H9.56539V116.338H0.953125V111.745H23.3689V116.338Z" fill="white"/>
<path d="M33.8968 123.204C32.3657 123.228 30.9782 123.515 29.7581 124.089C28.5381 124.663 27.6768 125.5 27.1505 126.649V138.682H22.0789V118.802H26.7438V123.06C27.1027 122.366 27.5094 121.768 27.9878 121.218C28.4663 120.668 28.9926 120.189 29.5428 119.807C30.0931 119.4 30.6672 119.089 31.2414 118.874C31.8155 118.658 32.3657 118.563 32.892 118.563C33.1791 118.563 33.3705 118.563 33.514 118.563C33.6576 118.563 33.7772 118.587 33.9207 118.611V123.204H33.8968Z" fill="white"/>
<path d="M41.8923 139.065C40.9353 139.065 40.0263 138.897 39.189 138.586C38.3517 138.275 37.634 137.821 37.0359 137.247C36.4378 136.673 35.9594 136.003 35.6245 135.261C35.2895 134.496 35.1221 133.658 35.1221 132.749C35.1221 131.816 35.3374 130.955 35.7441 130.142C36.1508 129.352 36.7488 128.658 37.4904 128.108C38.2321 127.558 39.1172 127.127 40.1698 126.792C41.1985 126.481 42.3468 126.314 43.5908 126.314C44.4759 126.314 45.3372 126.386 46.1984 126.553C47.0357 126.697 47.8012 126.912 48.4472 127.199V126.051C48.4472 124.735 48.0644 123.73 47.3228 123.013C46.5812 122.295 45.4807 121.96 43.9975 121.96C42.9449 121.96 41.8923 122.151 40.8875 122.534C39.8827 122.917 38.8301 123.467 37.7775 124.209L36.2225 120.979C38.7823 119.281 41.5334 118.443 44.4999 118.443C47.3467 118.443 49.5715 119.137 51.1505 120.548C52.7294 121.96 53.5188 123.993 53.5188 126.625V132.797C53.5188 133.323 53.6145 133.706 53.8059 133.945C53.9973 134.185 54.3083 134.304 54.7389 134.328V138.658C53.8777 138.826 53.1361 138.921 52.4901 138.921C51.5332 138.921 50.7916 138.706 50.2653 138.275C49.739 137.845 49.428 137.271 49.3084 136.577L49.1888 135.476C48.3036 136.649 47.2271 137.534 45.9592 138.132C44.6913 138.754 43.3276 139.065 41.8923 139.065ZM43.3276 135.333C44.1889 135.333 45.0023 135.189 45.7678 134.878C46.5333 134.567 47.1314 134.161 47.562 133.658C48.1122 133.228 48.3993 132.749 48.3993 132.223V129.95C47.8012 129.711 47.1314 129.543 46.4376 129.4C45.7199 129.256 45.0501 129.185 44.3803 129.185C43.0645 129.185 41.988 129.472 41.1507 130.07C40.3134 130.668 39.9067 131.409 39.9067 132.319C39.9067 133.18 40.2416 133.897 40.8875 134.472C41.5573 135.046 42.3707 135.333 43.3276 135.333Z" fill="white"/>
<path d="M66.4837 139.065C65.1201 139.065 63.8522 138.801 62.68 138.275C61.5078 137.749 60.5269 137.007 59.6896 136.074C58.8523 135.141 58.2064 134.041 57.7279 132.797C57.2495 131.553 57.0342 130.189 57.0342 128.754C57.0342 127.318 57.2495 125.979 57.704 124.735C58.1346 123.491 58.7566 122.414 59.5461 121.481C60.3355 120.548 61.2685 119.807 62.3451 119.28C63.4216 118.754 64.6178 118.491 65.9096 118.491C67.3689 118.491 68.7086 118.85 69.8808 119.543C71.053 120.261 71.9621 121.17 72.6319 122.318V111.003H77.7036V132.845C77.7036 133.371 77.7993 133.754 77.9668 133.993C78.1342 134.232 78.4452 134.352 78.8759 134.376V138.706C77.9907 138.873 77.273 138.969 76.7228 138.969C75.8137 138.969 75.0721 138.73 74.474 138.275C73.8999 137.821 73.565 137.223 73.4932 136.481L73.3736 135.237C72.632 136.505 71.6511 137.462 70.4071 138.108C69.1392 138.73 67.8474 139.065 66.4837 139.065ZM67.7995 134.735C68.278 134.735 68.7804 134.663 69.2827 134.495C69.7851 134.328 70.2636 134.089 70.6942 133.802C71.1248 133.491 71.5076 133.156 71.8425 132.749C72.1774 132.342 72.4406 131.912 72.6319 131.433V126.696C72.4406 126.146 72.1535 125.62 71.7707 125.165C71.4119 124.687 70.9813 124.304 70.5267 123.945C70.0483 123.61 69.5698 123.323 69.0435 123.132C68.5172 122.94 68.0148 122.821 67.5124 122.821C66.7469 122.821 66.0531 122.988 65.4072 123.323C64.7613 123.658 64.2111 124.113 63.7565 124.663C63.302 125.237 62.9431 125.883 62.7039 126.625C62.4408 127.366 62.3212 128.108 62.3212 128.897C62.3212 129.735 62.4647 130.5 62.7278 131.218C63.0149 131.936 63.3738 132.558 63.8761 133.084C64.3546 133.61 64.9288 134.041 65.5986 134.328C66.2445 134.591 66.9861 134.735 67.7995 134.735Z" fill="white"/>
<path d="M91.9324 139.065C90.3295 139.065 88.8941 138.802 87.6023 138.251C86.3105 137.701 85.21 136.96 84.3009 136.027C83.3919 135.094 82.6981 133.993 82.1957 132.773C81.6933 131.529 81.4541 130.237 81.4541 128.874C81.4541 127.462 81.6933 126.122 82.1718 124.878C82.6502 123.634 83.344 122.534 84.2531 121.577C85.1622 120.62 86.2626 119.879 87.5784 119.328C88.8702 118.778 90.3295 118.491 91.9563 118.491C93.583 118.491 95.0184 118.778 96.3103 119.328C97.5782 119.879 98.6786 120.62 99.5638 121.577C100.473 122.51 101.143 123.611 101.621 124.831C102.1 126.075 102.315 127.366 102.315 128.706C102.315 129.041 102.315 129.352 102.291 129.663C102.267 129.974 102.243 130.213 102.195 130.429H86.8368C86.9085 131.218 87.0999 131.912 87.4109 132.51C87.7219 133.108 88.1047 133.634 88.5831 134.065C89.0616 134.496 89.6118 134.83 90.2099 135.046C90.808 135.285 91.4539 135.381 92.0998 135.381C93.1046 135.381 94.0615 135.141 94.9706 134.639C95.8797 134.137 96.4777 133.491 96.8126 132.677L101.167 133.897C100.425 135.405 99.2528 136.649 97.65 137.629C96.071 138.562 94.1572 139.065 91.9324 139.065ZM97.0758 127.079C96.9562 125.596 96.4059 124.4 95.4251 123.491C94.4443 122.582 93.272 122.151 91.8845 122.151C91.1907 122.151 90.5687 122.271 89.9707 122.51C89.3726 122.749 88.8463 123.084 88.3918 123.515C87.9372 123.945 87.5545 124.472 87.2674 125.07C86.9803 125.668 86.8128 126.338 86.765 127.079H97.0758Z" fill="white"/>
<path d="M121.96 118.802C121.792 118.634 121.457 118.395 121.003 118.084C120.524 117.773 119.974 117.486 119.304 117.199C118.635 116.912 117.917 116.672 117.127 116.457C116.338 116.266 115.548 116.146 114.735 116.146C113.3 116.146 112.223 116.409 111.505 116.936C110.788 117.462 110.453 118.203 110.453 119.184C110.453 119.735 110.596 120.213 110.86 120.572C111.123 120.931 111.505 121.266 112.008 121.529C112.51 121.816 113.156 122.055 113.922 122.294C114.687 122.534 115.572 122.773 116.601 123.012C117.917 123.371 119.113 123.754 120.189 124.16C121.266 124.567 122.175 125.069 122.917 125.667C123.658 126.266 124.232 127.007 124.639 127.844C125.046 128.682 125.237 129.734 125.237 130.978C125.237 132.414 124.974 133.658 124.424 134.686C123.874 135.715 123.156 136.528 122.223 137.174C121.29 137.796 120.237 138.275 119.041 138.562C117.845 138.849 116.577 138.993 115.261 138.993C113.228 138.993 111.242 138.682 109.257 138.083C107.295 137.485 105.525 136.624 103.946 135.5L106.266 130.978C106.506 131.218 106.912 131.505 107.51 131.863C108.108 132.222 108.802 132.605 109.616 132.964C110.429 133.323 111.314 133.634 112.319 133.897C113.3 134.16 114.304 134.28 115.357 134.28C118.252 134.28 119.687 133.347 119.687 131.505C119.687 130.93 119.52 130.428 119.185 130.021C118.85 129.615 118.395 129.256 117.773 128.969C117.175 128.658 116.434 128.395 115.572 128.132C114.711 127.868 113.754 127.605 112.678 127.294C111.386 126.935 110.261 126.553 109.328 126.146C108.372 125.739 107.582 125.237 106.96 124.663C106.338 124.089 105.86 123.443 105.549 122.701C105.238 121.959 105.07 121.074 105.07 120.022C105.07 118.658 105.333 117.438 105.836 116.385C106.338 115.333 107.032 114.448 107.941 113.73C108.85 113.012 109.879 112.486 111.075 112.127C112.271 111.768 113.539 111.577 114.903 111.577C116.792 111.577 118.539 111.864 120.142 112.462C121.744 113.06 123.132 113.754 124.304 114.567L121.96 118.802Z" fill="white"/>
<path d="M137.889 139.064C136.286 139.064 134.851 138.801 133.559 138.251C132.267 137.701 131.167 136.959 130.258 136.026C129.349 135.093 128.655 133.993 128.153 132.773C127.65 131.529 127.411 130.237 127.411 128.873C127.411 127.462 127.65 126.122 128.129 124.878C128.607 123.634 129.301 122.534 130.21 121.577C131.119 120.62 132.219 119.878 133.535 119.328C134.827 118.778 136.286 118.491 137.913 118.491C139.54 118.491 140.975 118.778 142.267 119.328C143.535 119.878 144.635 120.62 145.521 121.577C146.43 122.51 147.099 123.61 147.578 124.83C148.056 126.074 148.272 127.366 148.272 128.706C148.272 129.041 148.272 129.352 148.248 129.663C148.224 129.974 148.2 130.213 148.152 130.428H132.794C132.865 131.218 133.057 131.911 133.368 132.51C133.679 133.108 134.061 133.634 134.54 134.065C135.018 134.495 135.569 134.83 136.167 135.045C136.765 135.285 137.411 135.38 138.057 135.38C139.061 135.38 140.018 135.141 140.927 134.639C141.836 134.136 142.435 133.49 142.769 132.677L147.123 133.897C146.382 135.404 145.21 136.648 143.607 137.629C142.028 138.562 140.114 139.064 137.889 139.064ZM143.057 127.079C142.937 125.596 142.387 124.4 141.406 123.491C140.425 122.582 139.253 122.151 137.865 122.151C137.171 122.151 136.549 122.271 135.951 122.51C135.353 122.749 134.827 123.084 134.372 123.515C133.918 123.945 133.535 124.471 133.248 125.07C132.961 125.668 132.794 126.337 132.746 127.079H143.057Z" fill="white"/>
<path d="M160.616 139.065C159.013 139.065 157.578 138.802 156.286 138.251C154.994 137.701 153.894 136.96 152.985 136.027C152.076 135.094 151.382 133.993 150.88 132.773C150.377 131.529 150.138 130.237 150.138 128.874C150.138 127.462 150.377 126.122 150.856 124.878C151.334 123.634 152.028 122.534 152.937 121.577C153.846 120.62 154.946 119.879 156.262 119.328C157.554 118.778 159.013 118.491 160.64 118.491C162.267 118.491 163.702 118.778 164.994 119.328C166.262 119.879 167.362 120.62 168.248 121.577C169.157 122.51 169.827 123.611 170.305 124.831C170.783 126.075 170.999 127.366 170.999 128.706C170.999 129.041 170.999 129.352 170.975 129.663C170.951 129.974 170.927 130.213 170.879 130.429H155.521C155.592 131.218 155.784 131.912 156.095 132.51C156.406 133.108 156.789 133.634 157.267 134.065C157.745 134.496 158.296 134.83 158.894 135.046C159.492 135.285 160.138 135.381 160.784 135.381C161.788 135.381 162.745 135.141 163.654 134.639C164.563 134.137 165.162 133.491 165.496 132.677L169.85 133.897C169.109 135.405 167.937 136.649 166.334 137.629C164.755 138.562 162.841 139.065 160.616 139.065ZM165.784 127.079C165.664 125.596 165.114 124.4 164.133 123.491C163.152 122.582 161.98 122.151 160.592 122.151C159.899 122.151 159.277 122.271 158.678 122.51C158.08 122.749 157.554 123.084 157.1 123.515C156.645 123.945 156.262 124.472 155.975 125.07C155.688 125.668 155.521 126.338 155.473 127.079H165.784Z" fill="white"/>
<defs>
<clipPath id="clip0_990_4">
<rect width="93" height="100" fill="white" transform="translate(39)"/>
</clipPath>
</defs>
</svg>
