<svg width="238" height="32" viewBox="0 0 238 32" fill="#000000" xmlns="http://www.w3.org/2000/svg">
<g clip-path="url(#clip0_965_147)">
<path d="M72.2852 5.95404H62.6256V30.4524H56.8031V5.95404H47.1436V0.917969H72.2852V5.95404Z" fill="white"/>
<path d="M84.0914 13.4818C82.3742 13.5081 80.8179 13.8228 79.4495 14.4523C78.0811 15.0818 77.1151 15.9999 76.5248 17.2589V30.4523H70.8364V8.65561H76.0687V13.3245C76.4711 12.5638 76.9273 11.9081 77.4639 11.3048C78.0006 10.7015 78.5909 10.1769 79.208 9.75725C79.8252 9.31135 80.4691 8.97036 81.1131 8.73429C81.7571 8.49823 82.3742 8.39331 82.9645 8.39331C83.2865 8.39331 83.5011 8.39331 83.6621 8.39331C83.8231 8.39331 83.9573 8.41954 84.1183 8.44577V13.4818H84.0914Z" fill="white"/>
<path d="M93.0534 30.872C91.9801 30.872 90.9605 30.6884 90.0214 30.3475C89.0823 30.0065 88.2773 29.5081 87.6065 28.8786C86.9357 28.2491 86.3991 27.5147 86.0234 26.7015C85.6478 25.8622 85.46 24.9442 85.46 23.9474C85.46 22.9245 85.7015 21.9802 86.1576 21.0884C86.6137 20.2229 87.2845 19.4622 88.1163 18.8589C88.9481 18.2557 89.9409 17.7835 91.1215 17.4163C92.2753 17.0753 93.5632 16.8917 94.9585 16.8917C95.9513 16.8917 96.9172 16.9704 97.8832 17.154C98.8223 17.3114 99.6809 17.5474 100.405 17.8622V16.6032C100.405 15.1606 99.9761 14.0589 99.1443 13.272C98.3125 12.4852 97.0782 12.1179 95.4146 12.1179C94.234 12.1179 93.0534 12.3278 91.9265 12.7474C90.7995 13.1671 89.6189 13.7704 88.4383 14.5835L86.6942 11.0425C89.5653 9.18023 92.6509 8.26221 95.9781 8.26221C99.1711 8.26221 101.667 9.02286 103.437 10.5704C105.208 12.1179 106.094 14.3475 106.094 17.2327V23.9999C106.094 24.577 106.201 24.9966 106.416 25.2589C106.63 25.5212 106.979 25.6524 107.462 25.6786V30.4261C106.496 30.6097 105.664 30.7147 104.94 30.7147C103.867 30.7147 103.035 30.4786 102.445 30.0065C101.854 29.5343 101.506 28.9048 101.371 28.1442L101.237 26.9376C100.244 28.2229 99.037 29.1933 97.6149 29.8491C96.1928 30.5311 94.6633 30.872 93.0534 30.872ZM94.6633 26.7802C95.6293 26.7802 96.5416 26.6229 97.4002 26.2819C98.2588 25.9409 98.9296 25.495 99.4126 24.9442C100.03 24.472 100.352 23.9474 100.352 23.3704V20.8786C99.6809 20.6163 98.9296 20.4327 98.1515 20.2753C97.3465 20.1179 96.5953 20.0393 95.844 20.0393C94.3682 20.0393 93.1608 20.354 92.2216 21.0097C91.2825 21.6655 90.8264 22.4786 90.8264 23.4753C90.8264 24.4196 91.202 25.2065 91.9265 25.836C92.6778 26.4655 93.5901 26.7802 94.6633 26.7802Z" fill="white"/>
<path d="M120.636 30.872C119.107 30.872 117.684 30.5834 116.37 30.0064C115.055 29.4293 113.955 28.6162 113.016 27.5933C112.077 26.5703 111.352 25.3638 110.815 23.9998C110.279 22.6359 110.037 21.1408 110.037 19.567C110.037 17.9933 110.279 16.5244 110.789 15.1605C111.272 13.7965 111.969 12.6162 112.855 11.5933C113.74 10.5703 114.787 9.7572 115.994 9.18015C117.201 8.6031 118.543 8.31458 119.992 8.31458C121.629 8.31458 123.131 8.70801 124.446 9.46867C125.761 10.2556 126.781 11.2523 127.532 12.5113V0.104736H133.22V24.0523C133.22 24.6293 133.328 25.049 133.515 25.3113C133.703 25.5736 134.052 25.7047 134.535 25.731V30.4785C133.542 30.6621 132.737 30.767 132.12 30.767C131.1 30.767 130.269 30.5047 129.598 30.0064C128.954 29.508 128.578 28.8523 128.498 28.0392L128.364 26.6752C127.532 28.0654 126.432 29.1146 125.036 29.8228C123.614 30.5047 122.165 30.872 120.636 30.872ZM122.112 26.1244C122.648 26.1244 123.212 26.0457 123.775 25.8621C124.339 25.6785 124.875 25.4162 125.358 25.1015C125.841 24.7605 126.271 24.3933 126.646 23.9474C127.022 23.5015 127.317 23.0293 127.532 22.5047V17.3113C127.317 16.708 126.995 16.131 126.566 15.6326C126.163 15.108 125.68 14.6883 125.171 14.2949C124.634 13.9277 124.097 13.6129 123.507 13.4031C122.917 13.1933 122.353 13.0621 121.79 13.0621C120.931 13.0621 120.153 13.2457 119.429 13.6129C118.704 13.9802 118.087 14.4785 117.577 15.0818C117.067 15.7113 116.665 16.4195 116.397 17.2326C116.101 18.0457 115.967 18.8588 115.967 19.7244C115.967 20.6424 116.128 21.4818 116.423 22.2687C116.745 23.0556 117.148 23.7375 117.711 24.3146C118.248 24.8916 118.892 25.3638 119.643 25.6785C120.368 25.967 121.199 26.1244 122.112 26.1244Z" fill="white"/>
<path d="M149.186 30.8721C147.388 30.8721 145.778 30.5835 144.329 29.9803C142.88 29.377 141.646 28.5639 140.626 27.5409C139.607 26.518 138.829 25.3114 138.265 23.9737C137.702 22.6098 137.433 21.1934 137.433 19.6983C137.433 18.1508 137.702 16.6819 138.238 15.318C138.775 13.954 139.553 12.7475 140.573 11.6983C141.592 10.6491 142.827 9.83601 144.302 9.23273C145.751 8.62945 147.388 8.3147 149.213 8.3147C151.037 8.3147 152.647 8.62945 154.096 9.23273C155.518 9.83601 156.752 10.6491 157.745 11.6983C158.765 12.7212 159.516 13.9278 160.053 15.2655C160.589 16.6295 160.831 18.0458 160.831 19.5147C160.831 19.8819 160.831 20.2229 160.804 20.5639C160.777 20.9049 160.75 21.1671 160.697 21.4032H143.471C143.551 22.2688 143.766 23.0294 144.115 23.6852C144.463 24.3409 144.893 24.918 145.429 25.3901C145.966 25.8622 146.583 26.2295 147.254 26.4655C147.925 26.7278 148.649 26.8327 149.374 26.8327C150.501 26.8327 151.574 26.5704 152.593 26.0196C153.613 25.4688 154.284 24.7606 154.66 23.8688L159.543 25.2065C158.711 26.859 157.396 28.2229 155.599 29.2983C153.828 30.3213 151.681 30.8721 149.186 30.8721ZM154.955 17.7311C154.82 16.1049 154.203 14.7934 153.103 13.7967C152.003 12.7999 150.688 12.3278 149.132 12.3278C148.354 12.3278 147.656 12.459 146.986 12.7213C146.315 12.9835 145.724 13.3508 145.215 13.8229C144.705 14.295 144.276 14.8721 143.954 15.5278C143.632 16.1836 143.444 16.918 143.39 17.7311H154.955Z" fill="white"/>
<path d="M182.86 8.65545C182.672 8.47184 182.296 8.20954 181.787 7.86856C181.25 7.52758 180.633 7.21282 179.881 6.89807C179.13 6.58331 178.325 6.32102 177.44 6.08496C176.554 5.87512 175.669 5.74397 174.757 5.74397C173.147 5.74397 171.939 6.0325 171.134 6.60955C170.329 7.1866 169.954 7.9997 169.954 9.07511C169.954 9.67839 170.115 10.203 170.41 10.5964C170.705 10.9899 171.134 11.3571 171.698 11.6456C172.261 11.9604 172.986 12.2227 173.844 12.4849C174.703 12.7472 175.696 13.0095 176.849 13.2718C178.325 13.6653 179.667 14.085 180.874 14.5309C182.082 14.9768 183.101 15.5276 183.933 16.1833C184.765 16.8391 185.409 17.6522 185.865 18.5702C186.321 19.4882 186.536 20.6423 186.536 22.0063C186.536 23.58 186.241 24.944 185.623 26.0718C185.006 27.1997 184.201 28.0915 183.155 28.7997C182.108 29.4817 180.928 30.0063 179.586 30.321C178.245 30.6358 176.823 30.7932 175.347 30.7932C173.066 30.7932 170.839 30.4522 168.612 29.7964C166.412 29.1407 164.426 28.1964 162.655 26.9636L165.258 22.0063C165.526 22.2686 165.982 22.5833 166.653 22.9767C167.324 23.3702 168.102 23.7899 169.014 24.1833C169.927 24.5768 170.92 24.9177 172.046 25.2063C173.147 25.4948 174.274 25.6259 175.454 25.6259C178.701 25.6259 180.311 24.603 180.311 22.5833C180.311 21.9538 180.123 21.403 179.747 20.9571C179.372 20.5112 178.862 20.1177 178.164 19.803C177.493 19.462 176.662 19.1735 175.696 18.885C174.73 18.5964 173.656 18.3079 172.449 17.9669C171 17.5735 169.739 17.1538 168.692 16.7079C167.619 16.262 166.734 15.7112 166.036 15.0817C165.338 14.4522 164.802 13.744 164.453 12.9309C164.104 12.1177 163.916 11.1472 163.916 9.99314C163.916 8.49806 164.212 7.16036 164.775 6.00626C165.338 4.85217 166.117 3.88167 167.136 3.09479C168.156 2.3079 169.31 1.73086 170.651 1.33741C171.993 0.943972 173.415 0.734131 174.944 0.734131C177.064 0.734131 179.023 1.04889 180.821 1.70463C182.618 2.36036 184.175 3.12102 185.489 4.01282L182.86 8.65545Z" fill="white"/>
<path d="M200.73 30.8721C198.933 30.8721 197.323 30.5835 195.874 29.9803C194.425 29.377 193.191 28.5639 192.171 27.5409C191.151 26.518 190.373 25.3114 189.81 23.9737C189.246 22.6098 188.978 21.1934 188.978 19.6983C188.978 18.1508 189.246 16.6819 189.783 15.318C190.32 13.954 191.098 12.7475 192.117 11.6983C193.137 10.6491 194.371 9.83601 195.847 9.23273C197.296 8.62945 198.933 8.3147 200.757 8.3147C202.582 8.3147 204.192 8.62945 205.641 9.23273C207.063 9.83601 208.297 10.6491 209.29 11.6983C210.309 12.7212 211.061 13.9278 211.597 15.2655C212.134 16.6295 212.376 18.0458 212.376 19.5147C212.376 19.8819 212.376 20.2229 212.349 20.5639C212.322 20.9049 212.295 21.1671 212.241 21.4032H195.015C195.096 22.2688 195.31 23.0294 195.659 23.6852C196.008 24.3409 196.437 24.918 196.974 25.3901C197.511 25.8622 198.128 26.2295 198.799 26.4655C199.469 26.7278 200.194 26.8327 200.918 26.8327C202.045 26.8327 203.119 26.5704 204.138 26.0196C205.158 25.4688 205.829 24.7606 206.204 23.8688L211.088 25.2065C210.256 26.859 208.941 28.2229 207.143 29.2983C205.372 30.3213 203.226 30.8721 200.73 30.8721ZM206.526 17.7311C206.392 16.1049 205.775 14.7934 204.675 13.7967C203.575 12.7999 202.26 12.3278 200.704 12.3278C199.925 12.3278 199.228 12.459 198.557 12.7213C197.886 12.9835 197.296 13.3508 196.786 13.8229C196.276 14.295 195.847 14.8721 195.525 15.5278C195.203 16.1836 195.015 16.918 194.962 17.7311H206.526Z" fill="white"/>
<path d="M226.221 30.8721C224.423 30.8721 222.813 30.5835 221.364 29.9803C219.915 29.377 218.681 28.5639 217.662 27.5409C216.642 26.518 215.864 25.3114 215.3 23.9737C214.737 22.6098 214.469 21.1934 214.469 19.6983C214.469 18.1508 214.737 16.6819 215.273 15.318C215.81 13.954 216.588 12.7475 217.608 11.6983C218.627 10.6491 219.862 9.83601 221.338 9.23273C222.786 8.62945 224.423 8.3147 226.248 8.3147C228.072 8.3147 229.682 8.62945 231.131 9.23273C232.553 9.83601 233.788 10.6491 234.78 11.6983C235.8 12.7212 236.551 13.9278 237.088 15.2655C237.625 16.6295 237.866 18.0458 237.866 19.5147C237.866 19.8819 237.866 20.2229 237.839 20.5639C237.812 20.9049 237.786 21.1671 237.732 21.4032H220.506C220.586 22.2688 220.801 23.0294 221.15 23.6852C221.499 24.3409 221.928 24.918 222.464 25.3901C223.001 25.8622 223.618 26.2295 224.289 26.4655C224.96 26.7278 225.684 26.8327 226.409 26.8327C227.536 26.8327 228.609 26.5704 229.629 26.0196C230.648 25.4688 231.319 24.7606 231.695 23.8688L236.578 25.2065C235.746 26.859 234.432 28.2229 232.634 29.2983C230.863 30.3213 228.716 30.8721 226.221 30.8721ZM232.017 17.7311C231.882 16.1049 231.265 14.7934 230.165 13.7967C229.065 12.7999 227.75 12.3278 226.194 12.3278C225.416 12.3278 224.718 12.459 224.048 12.7213C223.377 12.9835 222.786 13.3508 222.277 13.8229C221.767 14.295 221.338 14.8721 221.016 15.5278C220.694 16.1836 220.506 16.918 220.452 17.7311H232.017Z" fill="white"/>
<path d="M36.4373 1.75731V25.6262L20.9821 2.25567C20.6601 1.75731 19.9088 1.75731 19.5868 2.25567L4.13159 25.6262V1.75731C4.13159 0.262226 5.36586 -0.944336 6.86846 -0.944336H33.6736C35.2031 -0.944336 36.4373 0.262226 36.4373 1.75731Z" fill="white"/>
<path d="M34.5854 31.7639L32.5998 30.636L26.187 26.9639L24.3892 25.9409L20.7401 23.8426C20.4718 23.6852 20.1498 23.6852 19.8815 23.8426L16.2323 25.9409L14.4346 26.9639L8.02171 30.636L6.03614 31.7639C5.28484 32.2098 4.42622 31.3442 4.9092 30.6098L5.25801 30.0852L19.6131 8.36718C19.9351 7.86882 20.6864 7.86882 21.0084 8.36718L35.3635 30.0852L35.7124 30.6098C36.1953 31.3442 35.3367 32.2098 34.5854 31.7639Z" fill="white"/>
</g>
<defs>
<clipPath id="clip0_965_147">
<rect width="238" height="32" fill="white"/>
</clipPath>
</defs>
</svg>
